# Blender v2.79 (sub 0) OBJ File: 'sheath.blend'
# www.blender.org
mtllib katana_sheath.mtl
o katana_sheath
v -0.029335 -0.071047 0.228106
v -0.029335 -0.071047 -0.033998
v 0.029383 -0.071047 -0.033998
v 0.029384 -0.071047 0.228106
v 0.029383 0.070931 0.228105
v 0.029383 0.070931 -0.033998
v 0.029384 0.106178 1.380485
v -0.029335 0.106178 1.380485
v -0.029335 0.138711 1.642211
v 0.029384 0.138711 1.642211
v -0.029335 -0.038005 1.396871
v -0.029335 -0.005056 1.667146
v 0.029384 -0.005056 1.667146
v -0.029335 0.070931 -0.033998
v -0.029335 0.070931 0.228105
v -0.029335 -0.067754 0.593570
v -0.029335 0.074208 0.591451
v -0.029335 -0.055848 1.058397
v -0.029335 0.084758 1.051244
v 0.029384 0.074208 0.591451
v 0.029384 0.084758 1.051244
v 0.029383 -0.038005 1.396871
v 0.029384 -0.055848 1.058397
v 0.029384 -0.067754 0.593570
v 0.029384 -0.022889 1.535299
v -0.029335 -0.022889 1.535299
v 0.029384 0.120644 1.514771
v -0.029335 0.120644 1.514771
vt 0.428723 0.917737
vt 0.375560 0.917736
vt 0.625553 0.917431
vt 0.600592 0.917432
vt 0.441036 0.875222
vt 0.441036 0.922097
vt 0.351562 0.922097
vt 0.351562 0.875222
vt 0.494286 0.878997
vt 0.537255 0.878997
vt 0.548974 0.878997
vt 0.486474 0.878997
vt 0.954084 0.921878
vt 1.000000 0.921878
vt 1.000000 0.875000
vt 0.954084 0.875000
vt 0.352322 0.922110
vt 0.352322 0.875235
vt 0.367947 0.875235
vt 0.367947 0.922110
vt 0.430469 0.962500
vt 0.421094 0.962499
vt 0.425058 0.953161
vt 0.430469 0.951563
vt 0.351562 0.921872
vt 0.441036 0.921874
vt 0.441037 0.875000
vt 0.351562 0.875000
vt 0.587043 0.921875
vt 0.587043 0.875000
vt 0.766766 0.921877
vt 0.766766 0.875000
vt 0.611474 0.878997
vt 0.361474 0.878997
vt 0.408349 0.878997
vt 0.580224 0.878997
vt 0.455224 0.878997
vt 0.548974 0.878997
vt 0.502099 0.878997
vt 0.517724 0.878997
vt 0.897697 0.875222
vt 0.897697 0.922097
vt 0.766766 0.922097
vt 0.766765 0.875222
vt 0.587043 0.922097
vt 0.587043 0.875222
vt 0.561630 0.917740
vt 0.535049 0.917740
vt 0.550669 0.917433
vt 0.538189 0.917434
vt 0.481886 0.917738
vt 0.575631 0.917432
vt 0.574921 0.917740
vt 0.531949 0.917434
vt 0.954084 0.875222
vt 0.954084 0.922097
vt 0.897697 0.921877
vt 0.897697 0.875000
vt 0.525536 0.878997
vt 0.502099 0.878997
vt 1.000000 0.875222
vt 1.000000 0.922097
vt 0.588212 0.917741
vt 0.525708 0.917434
vn -0.7061 -0.7081 0.0032
vn -0.5774 -0.5774 -0.5774
vn 0.5774 -0.5774 -0.5774
vn 0.7061 -0.7081 0.0032
vn 0.7081 0.7061 -0.0032
vn 0.5773 0.5774 -0.5774
vn 0.7109 0.6979 -0.0870
vn -0.7109 0.6979 -0.0870
vn -0.5790 0.6592 0.4798
vn 0.5790 0.6592 0.4798
vn -0.7042 -0.7047 0.0861
vn -0.5754 -0.4834 0.6597
vn 0.5754 -0.4834 0.6597
vn -0.5774 0.5774 -0.5774
vn -0.7081 0.7061 -0.0032
vn -0.7052 -0.7089 0.0123
vn -0.7087 0.7054 -0.0113
vn -0.7041 -0.7096 0.0278
vn -0.7119 0.7016 -0.0309
vn 0.7087 0.7054 -0.0113
vn 0.7119 0.7016 -0.0309
vn 0.7119 0.6997 -0.0604
vn 0.7008 -0.7110 0.0575
vn 0.7041 -0.7096 0.0278
vn 0.7052 -0.7089 0.0123
vn -0.7008 -0.7110 0.0575
vn 0.7042 -0.7047 0.0861
vn -0.7119 0.6997 -0.0604
usemtl None.001
s 1
f 1/1/1 2/2/2 3/3/3 4/4/4
f 5/5/5 4/6/4 3/7/3 6/8/6
f 27/9/7 28/10/8 9/11/9 10/12/10
f 26/13/11 12/14/12 9/15/9 28/16/8
f 13/17/13 10/18/10 9/19/9 12/20/12
f 3/21/3 2/22/2 14/23/14 6/24/6
f 2/25/2 1/26/1 15/27/15 14/28/14
f 1/26/1 16/29/16 17/30/17 15/27/15
f 16/29/16 18/31/18 19/32/19 17/30/17
f 6/33/6 14/34/14 15/35/15 5/36/5
f 5/36/5 15/35/15 17/37/17 20/38/20
f 20/38/20 17/37/17 19/39/19 21/40/21
f 7/41/22 22/42/23 23/43/24 21/44/21
f 21/44/21 23/43/24 24/45/25 20/46/20
f 20/46/20 24/45/25 4/6/4 5/5/5
f 11/47/26 18/48/18 23/49/24 22/50/23
f 18/48/18 16/51/16 24/52/25 23/49/24
f 16/51/16 1/1/1 4/4/4 24/52/25
f 26/53/11 11/47/26 22/50/23 25/54/27
f 27/55/7 25/56/27 22/42/23 7/41/22
f 18/31/18 11/57/26 8/58/28 19/32/19
f 21/40/21 19/39/19 8/59/28 7/60/22
f 10/61/10 13/62/13 25/56/27 27/55/7
f 12/63/12 26/53/11 25/54/27 13/64/13
f 11/57/26 26/13/11 28/16/8 8/58/28
f 7/60/22 8/59/28 28/10/8 27/9/7
